<?xml version="1.0" encoding="UTF-8"?>
<svg id="Layer_2" data-name="Layer 2" xmlns="http://www.w3.org/2000/svg" viewBox="0 0 1111.13 1355.31">
  <g id="Layer_2-2" data-name="Layer 2">
    <path d="M1111.13,303.73V865.79c0,2.25-.89,4.4-2.48,5.99l-190.26,190.26c-5.34,5.34-14.46,1.56-14.46-5.99v-252.14c0-7.55-9.12-11.33-14.46-5.99l-187.4,187.4-103.79,103.82c-5.34,5.34-14.46,1.56-14.46-5.99V8.52c0-7.55,9.12-11.33,14.46-5.99l190.23,190.23c1.59,1.59,2.48,3.74,2.48,5.99v384.23c0,7.55,9.12,11.33,14.46,5.99l98.49-98.49,91.15-91.15,101.59-101.59c5.34-5.34,14.46-1.56,14.46,5.99Z"/>
    <path d="M527.34,8.49V1156.57c0,2.25-.89,4.4-2.48,5.99l-115.8,115.77-74.45,74.48c-5.34,5.34-14.46,1.56-14.46-5.99V801.71c0-7.55-9.12-11.33-14.46-5.99l-98.49,98.49-91.12,91.15-101.62,101.6c-5.34,5.34-14.46,1.56-14.46-5.99v-269.05c0-2.25,.89-4.4,2.48-5.99L317.66,490.73c1.59-1.59,2.48-3.74,2.48-5.99V198.75c0-2.25,.89-4.4,2.48-5.99L512.88,2.5c5.34-5.34,14.46-1.56,14.46,5.99Z"/>
  </g>
</svg>